<?xml version="1.0" encoding="utf-8"?>
<!DOCTYPE svg PUBLIC "-//W3C//DTD SVG 1.1//EN" "http://www.w3.org/Graphics/SVG/1.1/DTD/svg11.dtd">
<svg version="1.1" id="Layer_1" xmlns="http://www.w3.org/2000/svg" xmlns:xlink="http://www.w3.org/1999/xlink" x="0px" y="0px"
	 width="900px" height="300px" viewBox="0 0 900 300" enable-background="new 0 0 900 300" xml:space="preserve">
<line fill="none" stroke="#222221" stroke-miterlimit="10" x1="450" y1="0" x2="450" y2="300"/>
<text transform="matrix(1 0 0 1 167.7915 24)" fill="#222221" font-family="'OpenSans-Bold'" font-size="18">centralised</text>
<text transform="matrix(1 0 0 1 613.7188 24)" fill="#222221" font-family="'OpenSans-Bold'" font-size="18">decentralised</text>
<g id="Stick">
</g>
<circle fill="none" stroke="#222221" stroke-miterlimit="10" cx="37.73" cy="17.63" r="9.02"/>
<line fill="none" stroke="#222221" stroke-miterlimit="10" x1="37.73" y1="26.66" x2="37.73" y2="60.57"/>
<line fill="none" stroke="#222221" stroke-miterlimit="10" x1="37.73" y1="60.57" x2="25.6" y2="72.7"/>
<line fill="none" stroke="#222221" stroke-miterlimit="10" x1="37.73" y1="35.68" x2="25.6" y2="31.01"/>
<line fill="none" stroke="#222221" stroke-miterlimit="10" x1="37.73" y1="60.57" x2="49.87" y2="72.7"/>
<line fill="none" stroke="#222221" stroke-miterlimit="10" x1="37.73" y1="35.68" x2="49.87" y2="31.01"/>
<text transform="matrix(1 0 0 1 15.9819 87.8208)" fill="#222221" font-family="'OpenSans-SemiboldItalic'" font-size="14">author</text>
<circle fill="none" stroke="#222221" stroke-miterlimit="10" cx="402.07" cy="36.05" r="9.02"/>
<line fill="none" stroke="#222221" stroke-miterlimit="10" x1="402.07" y1="45.08" x2="402.07" y2="78.99"/>
<line fill="none" stroke="#222221" stroke-miterlimit="10" x1="402.07" y1="78.99" x2="389.93" y2="91.12"/>
<line fill="none" stroke="#222221" stroke-miterlimit="10" x1="402.07" y1="54.1" x2="389.93" y2="49.43"/>
<line fill="none" stroke="#222221" stroke-miterlimit="10" x1="402.07" y1="78.99" x2="414.2" y2="91.12"/>
<line fill="none" stroke="#222221" stroke-miterlimit="10" x1="402.07" y1="54.1" x2="414.2" y2="49.43"/>
<circle fill="none" stroke="#222221" stroke-miterlimit="10" cx="389.93" cy="189.54" r="9.02"/>
<line fill="none" stroke="#222221" stroke-miterlimit="10" x1="389.93" y1="198.56" x2="389.93" y2="232.47"/>
<line fill="none" stroke="#222221" stroke-miterlimit="10" x1="389.93" y1="232.47" x2="377.8" y2="244.6"/>
<line fill="none" stroke="#222221" stroke-miterlimit="10" x1="389.93" y1="207.58" x2="377.8" y2="202.91"/>
<line fill="none" stroke="#222221" stroke-miterlimit="10" x1="389.93" y1="232.47" x2="402.07" y2="244.6"/>
<line fill="none" stroke="#222221" stroke-miterlimit="10" x1="389.93" y1="207.58" x2="402.07" y2="202.91"/>
<text transform="matrix(1 0 0 1 374.7354 106.2388)" fill="#222221" font-family="'OpenSans-SemiboldItalic'" font-size="14">reviewer</text>
<text transform="matrix(1 0 0 1 360.8799 259.3066)" fill="#222221" font-family="'OpenSans-SemiboldItalic'" font-size="14">annotator</text>
<circle fill="none" stroke="#222221" stroke-miterlimit="10" cx="37.73" cy="167.09" r="9.02"/>
<line fill="none" stroke="#222221" stroke-miterlimit="10" x1="37.73" y1="176.11" x2="37.73" y2="210.03"/>
<line fill="none" stroke="#222221" stroke-miterlimit="10" x1="37.73" y1="210.03" x2="25.6" y2="222.16"/>
<line fill="none" stroke="#222221" stroke-miterlimit="10" x1="37.73" y1="185.14" x2="25.6" y2="180.47"/>
<line fill="none" stroke="#222221" stroke-miterlimit="10" x1="37.73" y1="210.03" x2="49.87" y2="222.16"/>
<line fill="none" stroke="#222221" stroke-miterlimit="10" x1="37.73" y1="185.14" x2="49.87" y2="180.47"/>
<text transform="matrix(1 0 0 1 4.4541 236.8633)" fill="#222221" font-family="'OpenSans-SemiboldItalic'" font-size="14">commenter</text>
<circle fill="none" stroke="#222221" stroke-miterlimit="10" cx="170.4" cy="214.23" r="9.02"/>
<line fill="none" stroke="#222221" stroke-miterlimit="10" x1="170.4" y1="223.25" x2="170.4" y2="257.16"/>
<line fill="none" stroke="#222221" stroke-miterlimit="10" x1="170.4" y1="257.16" x2="158.26" y2="269.29"/>
<line fill="none" stroke="#222221" stroke-miterlimit="10" x1="170.4" y1="232.27" x2="158.26" y2="227.6"/>
<line fill="none" stroke="#222221" stroke-miterlimit="10" x1="170.4" y1="257.16" x2="182.53" y2="269.29"/>
<line fill="none" stroke="#222221" stroke-miterlimit="10" x1="170.4" y1="232.27" x2="182.53" y2="227.6"/>
<text transform="matrix(1 0 0 1 131.2231 283.998)" fill="#222221" font-family="'OpenSans-SemiboldItalic'" font-size="14">bookmarker</text>
<g>
	<g>
		<line fill="none" stroke="#868686" stroke-miterlimit="10" x1="49.87" y1="49.43" x2="202.66" y2="125.5"/>
		<g>
			<polygon fill="#868686" points="198.49,127.56 201.55,124.95 201.79,120.93 208,128.16 			"/>
		</g>
	</g>
</g>
<g>
	<g>
		<line fill="none" stroke="#868686" stroke-miterlimit="10" x1="393.04" y1="62.03" x2="287.18" y2="122.53"/>
		<g>
			<polygon fill="#868686" points="287.78,117.92 288.25,121.92 291.46,124.35 282,125.49 			"/>
		</g>
	</g>
</g>
<g>
	<g>
		<line fill="none" stroke="#868686" stroke-miterlimit="10" x1="377.8" y1="215.51" x2="284.35" y2="157.95"/>
		<g>
			<polygon fill="#868686" points="288.68,156.27 285.4,158.6 284.8,162.58 279.26,154.82 			"/>
		</g>
	</g>
</g>
<g>
	<g>
		<line fill="none" stroke="#868686" stroke-miterlimit="10" x1="49.87" y1="197.47" x2="202.24" y2="156.38"/>
		<g>
			<polygon fill="#868686" points="200.49,160.68 201.04,156.7 198.56,153.53 208,154.82 			"/>
		</g>
	</g>
</g>
<g>
	<g>
		<line fill="none" stroke="#868686" stroke-miterlimit="10" x1="179.42" y1="238.53" x2="237.61" y2="185.6"/>
		<g>
			<polygon fill="#868686" points="238.03,190.23 236.7,186.44 233.04,184.75 242.03,181.59 			"/>
		</g>
	</g>
</g>
<rect x="97.67" y="50.16" fill="#FFFFFF" stroke="#222221" stroke-miterlimit="10" width="46.67" height="57.64"/>
<text transform="matrix(1 0 0 1 103.4004 66.1475)"><tspan x="0" y="0" fill="#222221" font-family="'OpenSans'" font-size="12">publi- </tspan><tspan x="0" y="14.4" fill="#222221" font-family="'OpenSans'" font-size="12">cation</tspan></text>
<rect x="321.33" y="51.81" fill="#FFFFFF" stroke="#222221" stroke-miterlimit="10" width="46.67" height="57.64"/>
<text transform="matrix(1 0 0 1 326.0684 67.7964)" fill="#222221" font-family="'OpenSans'" font-size="12">review</text>
<circle fill="none" stroke="#222221" stroke-miterlimit="10" cx="847.07" cy="27.59" r="9.02"/>
<line fill="none" stroke="#222221" stroke-miterlimit="10" x1="847.07" y1="36.61" x2="847.07" y2="70.52"/>
<line fill="none" stroke="#222221" stroke-miterlimit="10" x1="847.07" y1="70.52" x2="834.93" y2="82.66"/>
<line fill="none" stroke="#222221" stroke-miterlimit="10" x1="847.07" y1="45.63" x2="834.93" y2="40.97"/>
<line fill="none" stroke="#222221" stroke-miterlimit="10" x1="847.07" y1="70.52" x2="859.2" y2="82.66"/>
<line fill="none" stroke="#222221" stroke-miterlimit="10" x1="847.07" y1="45.63" x2="859.2" y2="40.97"/>
<text transform="matrix(1 0 0 1 819.7354 97.7749)" fill="#222221" font-family="'OpenSans-SemiboldItalic'" font-size="14">reviewer</text>
<g>
	<g>
		<line fill="none" stroke="#868686" stroke-miterlimit="10" x1="838.04" y1="53.57" x2="761.72" y2="76.53"/>
		<g>
			<polygon fill="#868686" points="763.34,72.18 762.9,76.17 765.47,79.27 756,78.25 			"/>
		</g>
	</g>
</g>
<rect x="775.64" y="25.27" fill="#FFFFFF" stroke="#222221" stroke-miterlimit="10" width="46.67" height="57.64"/>
<text transform="matrix(1 0 0 1 780.377 41.2559)" fill="#222221" font-family="'OpenSans'" font-size="12">review</text>
<rect x="308" y="171.16" fill="#FFFFFF" stroke="#222221" stroke-miterlimit="10" width="46.67" height="36.76"/>
<text transform="matrix(1 0 0 1 312.7349 186.1401)"><tspan x="0" y="0" fill="#222221" font-family="'OpenSans'" font-size="12">anno- </tspan><tspan x="0" y="14.4" fill="#222221" font-family="'OpenSans'" font-size="12">tation</tspan></text>
<circle fill="none" stroke="#222221" stroke-miterlimit="10" cx="852.65" cy="205.72" r="9.02"/>
<line fill="none" stroke="#222221" stroke-miterlimit="10" x1="852.65" y1="214.74" x2="852.65" y2="248.65"/>
<line fill="none" stroke="#222221" stroke-miterlimit="10" x1="852.65" y1="248.65" x2="840.51" y2="260.78"/>
<line fill="none" stroke="#222221" stroke-miterlimit="10" x1="852.65" y1="223.76" x2="840.51" y2="219.09"/>
<line fill="none" stroke="#222221" stroke-miterlimit="10" x1="852.65" y1="248.65" x2="864.78" y2="260.78"/>
<line fill="none" stroke="#222221" stroke-miterlimit="10" x1="852.65" y1="223.76" x2="864.78" y2="219.09"/>
<text transform="matrix(1 0 0 1 823.5928 275.4873)" fill="#222221" font-family="'OpenSans-SemiboldItalic'" font-size="14">annotator</text>
<g>
	<g>
		<line fill="none" stroke="#868686" stroke-miterlimit="10" x1="834.94" y1="210.83" x2="764.6" y2="168.06"/>
		<g>
			<polygon fill="#868686" points="768.93,166.36 765.66,168.7 765.08,172.69 759.5,164.96 			"/>
		</g>
	</g>
</g>
<rect x="778.21" y="162.81" fill="#FFFFFF" stroke="#222221" stroke-miterlimit="10" width="46.67" height="36.76"/>
<text transform="matrix(1 0 0 1 782.9502 177.79)"><tspan x="0" y="0" fill="#222221" font-family="'OpenSans'" font-size="12">anno- </tspan><tspan x="0" y="14.4" fill="#222221" font-family="'OpenSans'" font-size="12">tation</tspan></text>
<rect x="96.73" y="165" fill="#FFFFFF" stroke="#222221" stroke-miterlimit="10" width="64.65" height="23.13"/>
<text transform="matrix(1 0 0 1 101.4658 179.9839)" fill="#222221" font-family="'OpenSans'" font-size="12">comment</text>
<rect x="203" y="195.85" fill="#FFFFFF" stroke="#222221" stroke-miterlimit="10" width="46.67" height="36.76"/>
<text transform="matrix(1 0 0 1 207.7354 210.8291)"><tspan x="0" y="0" fill="#222221" font-family="'OpenSans'" font-size="12">anno- </tspan><tspan x="0" y="14.4" fill="#222221" font-family="'OpenSans'" font-size="12">tation</tspan></text>
<circle fill="none" stroke="#222221" stroke-miterlimit="10" cx="499.52" cy="190.09" r="9.02"/>
<line fill="none" stroke="#222221" stroke-miterlimit="10" x1="499.52" y1="199.11" x2="499.52" y2="233.03"/>
<line fill="none" stroke="#222221" stroke-miterlimit="10" x1="499.52" y1="233.03" x2="487.38" y2="245.16"/>
<line fill="none" stroke="#222221" stroke-miterlimit="10" x1="499.52" y1="208.14" x2="487.38" y2="203.47"/>
<line fill="none" stroke="#222221" stroke-miterlimit="10" x1="499.52" y1="233.03" x2="511.65" y2="245.16"/>
<line fill="none" stroke="#222221" stroke-miterlimit="10" x1="499.52" y1="208.14" x2="511.65" y2="203.47"/>
<text transform="matrix(1 0 0 1 466.2383 259.8643)" fill="#222221" font-family="'OpenSans-SemiboldItalic'" font-size="14">commenter</text>
<circle fill="none" stroke="#222221" stroke-miterlimit="10" cx="710.47" cy="220.29" r="9.02"/>
<line fill="none" stroke="#222221" stroke-miterlimit="10" x1="710.46" y1="229.32" x2="710.46" y2="263.23"/>
<line fill="none" stroke="#222221" stroke-miterlimit="10" x1="710.46" y1="263.23" x2="698.33" y2="275.36"/>
<line fill="none" stroke="#222221" stroke-miterlimit="10" x1="710.46" y1="238.34" x2="698.33" y2="233.67"/>
<line fill="none" stroke="#222221" stroke-miterlimit="10" x1="710.46" y1="263.23" x2="722.6" y2="275.36"/>
<line fill="none" stroke="#222221" stroke-miterlimit="10" x1="710.46" y1="238.34" x2="722.6" y2="233.67"/>
<text transform="matrix(1 0 0 1 671.291 290.0654)" fill="#222221" font-family="'OpenSans-SemiboldItalic'" font-size="14">bookmarker</text>
<g>
	<g>
		<line fill="none" stroke="#868686" stroke-miterlimit="10" x1="511.65" y1="231.69" x2="604.29" y2="188.71"/>
		<g>
			<polygon fill="#868686" points="603.3,193.25 603.17,189.23 600.18,186.53 609.7,186.19 			"/>
		</g>
	</g>
</g>
<g>
	<g>
		<line fill="none" stroke="#868686" stroke-miterlimit="10" x1="696" y1="216.09" x2="634.53" y2="189.55"/>
		<g>
			<polygon fill="#868686" points="638.58,187.26 635.67,190.04 635.64,194.06 629.05,187.18 			"/>
		</g>
	</g>
</g>
<rect x="644.32" y="199.14" fill="#FFFFFF" stroke="#222221" stroke-miterlimit="10" width="46.67" height="36.76"/>
<text transform="matrix(1 0 0 1 649.0527 214.1191)"><tspan x="0" y="0" fill="#222221" font-family="'OpenSans'" font-size="12">anno- </tspan><tspan x="0" y="14.4" fill="#222221" font-family="'OpenSans'" font-size="12">tation</tspan></text>
<g id="db">
</g>
<g>
	<ellipse fill="none" stroke="#222221" stroke-miterlimit="10" cx="243.63" cy="90.91" rx="35.63" ry="10.28"/>
	<path fill="none" stroke="#222221" stroke-miterlimit="10" d="M279.26,90.91v80.52c0,5.68-15.95,10.28-35.63,10.28
		c-19.68,0-35.63-4.6-35.63-10.28V90.91"/>
</g>
<circle fill="none" stroke="#222221" stroke-miterlimit="10" cx="487.1" cy="15.71" r="9.02"/>
<line fill="none" stroke="#222221" stroke-miterlimit="10" x1="487.1" y1="24.74" x2="487.1" y2="58.65"/>
<line fill="none" stroke="#222221" stroke-miterlimit="10" x1="487.1" y1="58.65" x2="474.97" y2="70.78"/>
<line fill="none" stroke="#222221" stroke-miterlimit="10" x1="487.1" y1="33.76" x2="474.97" y2="29.09"/>
<line fill="none" stroke="#222221" stroke-miterlimit="10" x1="487.1" y1="58.65" x2="499.24" y2="70.78"/>
<line fill="none" stroke="#222221" stroke-miterlimit="10" x1="487.1" y1="33.76" x2="499.24" y2="29.09"/>
<text transform="matrix(1 0 0 1 465.3496 85.8999)" fill="#222221" font-family="'OpenSans-SemiboldItalic'" font-size="14">author</text>
<g>
	<g>
		<line fill="none" stroke="#868686" stroke-miterlimit="10" x1="499.24" y1="47.51" x2="545.41" y2="85.22"/>
		<g>
			<polygon fill="#868686" points="540.89,86.31 544.45,84.43 545.58,80.57 550.03,88.99 			"/>
		</g>
	</g>
</g>
<rect x="513.7" y="13.61" fill="#FFFFFF" stroke="#222221" stroke-miterlimit="10" width="46.67" height="57.64"/>
<text transform="matrix(1 0 0 1 519.4346 29.5884)"><tspan x="0" y="0" fill="#222221" font-family="'OpenSans'" font-size="12">publi- </tspan><tspan x="0" y="14.4" fill="#222221" font-family="'OpenSans'" font-size="12">cation</tspan></text>
<g>
	<g>
		<path fill="none" stroke="#A21C26" stroke-miterlimit="10" d="M582.71,105.13c34.15-27,155.04-73.63,192.93-71.37"/>
		<g>
			<polygon fill="#A21C26" points="585.9,105.89 583.4,104.6 582.59,101.9 579.52,107.82 			"/>
		</g>
	</g>
</g>
<g>
	<g>
		<path fill="none" stroke="#A21C26" stroke-miterlimit="10" d="M583.65,118.38c38.07,4.94,91.44-8.84,93.93,81.18"/>
		<g>
			<polygon fill="#A21C26" points="585.26,121.15 584.52,118.43 585.96,116.01 579.52,117.76 			"/>
		</g>
	</g>
</g>
<g>
	<g>
		<path fill="none" stroke="#A21C26" stroke-miterlimit="10" d="M574.92,121.92c-0.34,15.82-13.01,58.65-13.01,84.04"/>
		<g>
			<polygon fill="#A21C26" points="572.36,124.06 574.88,122.79 577.54,123.72 574.55,117.76 			"/>
		</g>
	</g>
</g>
<g>
	<g>
		<path fill="none" stroke="#A21C26" stroke-miterlimit="10" d="M583.68,111.5c30.38,1.66,185.56,5.87,213.54,51.31"/>
		<g>
			<polygon fill="#A21C26" points="585.51,114.14 584.55,111.49 585.8,108.96 579.52,111.21 			"/>
		</g>
	</g>
</g>
<text transform="matrix(1 0 0 1 224.0107 172.5557)" fill="#222221" font-family="'OpenSans-SemiboldItalic'" font-size="14">server</text>
<rect x="529.58" y="205.96" fill="#FFFFFF" stroke="#222221" stroke-miterlimit="10" width="64.64" height="23.13"/>
<text transform="matrix(1 0 0 1 534.3174 220.9453)" fill="#222221" font-family="'OpenSans'" font-size="12">comment</text>
<rect x="706.96" y="66.38" fill="none" stroke="#A21C26" stroke-miterlimit="10" width="9.93" height="9.93"/>
<rect x="706.96" y="80.18" fill="none" stroke="#A21C26" stroke-miterlimit="10" width="9.93" height="9.93"/>
<rect x="710.47" y="162.12" fill="none" stroke="#A21C26" stroke-miterlimit="10" width="9.93" height="9.93"/>
<rect x="569.58" y="107.82" fill="none" stroke="#A21C26" stroke-miterlimit="10" width="9.93" height="9.93"/>
<rect x="520.55" y="101.27" fill="none" stroke="#A21C26" stroke-miterlimit="10" width="9.93" height="9.93"/>
<rect x="520.55" y="114.54" fill="none" stroke="#A21C26" stroke-miterlimit="10" width="9.93" height="9.93"/>
<rect x="592.83" y="152.16" fill="none" stroke="#A21C26" stroke-miterlimit="10" width="9.93" height="9.93"/>
<rect x="592.83" y="166.59" fill="none" stroke="#A21C26" stroke-miterlimit="10" width="9.93" height="9.93"/>
<g>
	<ellipse fill="none" stroke="#222221" stroke-miterlimit="10" cx="622.32" cy="147.71" rx="19.55" ry="5.64"/>
	<path fill="none" stroke="#222221" stroke-miterlimit="10" d="M641.87,147.71v34.18c0,3.11-8.75,5.64-19.55,5.64
		s-19.55-2.52-19.55-5.64v-34.18"/>
</g>
<g>
	<ellipse fill="none" stroke="#222221" stroke-miterlimit="10" cx="550.03" cy="94.63" rx="19.55" ry="5.64"/>
	<path fill="none" stroke="#222221" stroke-miterlimit="10" d="M569.58,94.63v34.18c0,3.11-8.75,5.64-19.55,5.64
		s-19.55-2.52-19.55-5.64V94.63"/>
</g>
<g>
	<ellipse fill="none" stroke="#222221" stroke-miterlimit="10" cx="736.45" cy="60.62" rx="19.55" ry="5.64"/>
	<path fill="none" stroke="#222221" stroke-miterlimit="10" d="M756,60.62V94.8c0,3.11-8.75,5.64-19.55,5.64s-19.55-2.52-19.55-5.64
		V60.62"/>
</g>
<g>
	<ellipse fill="none" stroke="#222221" stroke-miterlimit="10" cx="739.95" cy="148.38" rx="19.55" ry="5.64"/>
	<path fill="none" stroke="#222221" stroke-miterlimit="10" d="M759.5,148.38v34.18c0,3.11-8.75,5.64-19.55,5.64
		s-19.55-2.52-19.55-5.64v-34.18"/>
</g>
<rect x="623.57" y="54.63" fill="#FFFFFF" stroke="#A21C26" stroke-miterlimit="10" width="66.43" height="16.4"/>
<text transform="matrix(1 0 0 1 626.7295 66.146)" fill="#A21C26" font-family="'OpenSans-Italic'" font-size="12">notification</text>
</svg>
